<svg viewBox="0 0 1228 1200" xmlns="http://www.w3.org/2000/svg">
<rect x="0" y="0" width="1228" height="1200" fill="#404040" />
<rect x="64" y="68" width="1100" height="1064" rx="8" fill="#B7CFF0" />
<rect x="116" y="120" width="996" height="980" rx="0" fill="#FFFFFF" />
<text x="615" y="232" font-family="Cormorant Garamond, serif" font-size="56" font-weight="700" fill="#E5E5E5" text-anchor="middle">233</text>
<rect x="260" y="42" width="58" height="26" rx="6" fill="#9CA0A6" />
<text x="289" y="55" font-family="Inter, sans-serif" font-size="13" font-weight="600" fill="#FFFFFF" text-anchor="middle" dominant-baseline="central">A</text>
<rect x="260" y="1148" width="58" height="24" rx="6" fill="#9CA0A6" />
<text x="289" y="1160" font-family="Inter, sans-serif" font-size="13" font-weight="600" fill="#FFFFFF" text-anchor="middle" dominant-baseline="central">E</text>
<rect x="454" y="278" width="30" height="77" rx="6" fill="#6E7177" />
<text x="469" y="316.5" font-family="Inter, sans-serif" font-size="13" font-weight="600" fill="#FFFFFF" text-anchor="middle" dominant-baseline="central">B</text>
<rect x="454" y="865" width="30" height="77" rx="6" fill="#6E7177" />
<text x="469" y="903.5" font-family="Inter, sans-serif" font-size="13" font-weight="600" fill="#FFFFFF" text-anchor="middle" dominant-baseline="central">C</text>
<rect x="370" y="1073" width="28" height="20" rx="6" fill="#6E7177" />
<text x="384" y="1083" font-family="Inter, sans-serif" font-size="13" font-weight="600" fill="#FFFFFF" text-anchor="middle" dominant-baseline="central">D</text>
<rect x="216" y="70" width="148" height="48" rx="4" fill="#DADADA" />
<rect x="216" y="1090" width="148" height="48" rx="4" fill="#DADADA" />
<rect x="768" y="272" width="28" height="174" rx="6" fill="#C2A878" />
<rect x="382" y="26" width="46" height="42" rx="6" fill="#7C9CC8" />
<text x="405" y="47" font-family="Inter, sans-serif" font-size="12" font-weight="600" fill="#FFFFFF" text-anchor="middle" dominant-baseline="central">1</text>
<rect x="414" y="84" width="72" height="20" rx="6" fill="#7C9CC8" />
<text x="450" y="94" font-family="Inter, sans-serif" font-size="12" font-weight="600" fill="#FFFFFF" text-anchor="middle" dominant-baseline="central">9</text>
<rect x="537" y="84" width="72" height="20" rx="6" fill="#7C9CC8" />
<text x="573" y="94" font-family="Inter, sans-serif" font-size="12" font-weight="600" fill="#FFFFFF" text-anchor="middle" dominant-baseline="central">10</text>
<rect x="659" y="84" width="72" height="20" rx="6" fill="#7C9CC8" />
<text x="695" y="94" font-family="Inter, sans-serif" font-size="12" font-weight="600" fill="#FFFFFF" text-anchor="middle" dominant-baseline="central">11</text>
<rect x="781" y="84" width="30" height="20" rx="6" fill="#7C9CC8" />
<text x="796" y="94" font-family="Inter, sans-serif" font-size="12" font-weight="600" fill="#FFFFFF" text-anchor="middle" dominant-baseline="central">12</text>
<rect x="821" y="84" width="32" height="20" rx="6" fill="#7C9CC8" />
<text x="837" y="94" font-family="Inter, sans-serif" font-size="12" font-weight="600" fill="#FFFFFF" text-anchor="middle" dominant-baseline="central">13</text>
<rect x="902" y="84" width="72" height="20" rx="6" fill="#7C9CC8" />
<text x="938" y="94" font-family="Inter, sans-serif" font-size="12" font-weight="600" fill="#FFFFFF" text-anchor="middle" dominant-baseline="central">14</text>
<rect x="1024" y="84" width="72" height="20" rx="6" fill="#7C9CC8" />
<text x="1060" y="94" font-family="Inter, sans-serif" font-size="12" font-weight="600" fill="#FFFFFF" text-anchor="middle" dominant-baseline="central">15</text>
<rect x="1127" y="150" width="29" height="63" rx="6" fill="#7C9CC8" />
<text x="1141.5" y="181.5" font-family="Inter, sans-serif" font-size="12" font-weight="600" fill="#FFFFFF" text-anchor="middle" dominant-baseline="central">16</text>
<rect x="1127" y="268" width="29" height="64" rx="6" fill="#7C9CC8" />
<text x="1141.5" y="300" font-family="Inter, sans-serif" font-size="12" font-weight="600" fill="#FFFFFF" text-anchor="middle" dominant-baseline="central">17</text>
<rect x="1127" y="388" width="29" height="64" rx="6" fill="#7C9CC8" />
<text x="1141.5" y="420" font-family="Inter, sans-serif" font-size="12" font-weight="600" fill="#FFFFFF" text-anchor="middle" dominant-baseline="central">18</text>
<rect x="1127" y="508" width="29" height="64" rx="6" fill="#7C9CC8" />
<text x="1141.5" y="540" font-family="Inter, sans-serif" font-size="12" font-weight="600" fill="#FFFFFF" text-anchor="middle" dominant-baseline="central">19</text>
<rect x="1127" y="628" width="29" height="64" rx="6" fill="#7C9CC8" />
<text x="1141.5" y="660" font-family="Inter, sans-serif" font-size="12" font-weight="600" fill="#FFFFFF" text-anchor="middle" dominant-baseline="central">20</text>
<rect x="1127" y="748" width="29" height="64" rx="6" fill="#7C9CC8" />
<text x="1141.5" y="780" font-family="Inter, sans-serif" font-size="12" font-weight="600" fill="#FFFFFF" text-anchor="middle" dominant-baseline="central">21</text>
<rect x="1127" y="863" width="29" height="30" rx="6" fill="#7C9CC8" />
<text x="1141.5" y="878" font-family="Inter, sans-serif" font-size="12" font-weight="600" fill="#FFFFFF" text-anchor="middle" dominant-baseline="central">22</text>
<rect x="1127" y="898" width="29" height="30" rx="6" fill="#7C9CC8" />
<text x="1141.5" y="913" font-family="Inter, sans-serif" font-size="12" font-weight="600" fill="#FFFFFF" text-anchor="middle" dominant-baseline="central">23</text>
<rect x="1127" y="933" width="29" height="30" rx="6" fill="#7C9CC8" />
<text x="1141.5" y="948" font-family="Inter, sans-serif" font-size="12" font-weight="600" fill="#FFFFFF" text-anchor="middle" dominant-baseline="central">24</text>
<rect x="1127" y="982" width="29" height="78" rx="6" fill="#7C9CC8" />
<text x="1141.5" y="1021" font-family="Inter, sans-serif" font-size="12" font-weight="600" fill="#FFFFFF" text-anchor="middle" dominant-baseline="central">25</text>
<rect x="1025" y="1113" width="72" height="22" rx="6" fill="#7C9CC8" />
<text x="1061" y="1124" font-family="Inter, sans-serif" font-size="12" font-weight="600" fill="#FFFFFF" text-anchor="middle" dominant-baseline="central">26</text>
<rect x="903" y="1113" width="72" height="22" rx="6" fill="#7C9CC8" />
<text x="939" y="1124" font-family="Inter, sans-serif" font-size="12" font-weight="600" fill="#FFFFFF" text-anchor="middle" dominant-baseline="central">27</text>
<rect x="781" y="1113" width="72" height="22" rx="6" fill="#7C9CC8" />
<text x="817" y="1124" font-family="Inter, sans-serif" font-size="12" font-weight="600" fill="#FFFFFF" text-anchor="middle" dominant-baseline="central">28</text>
<rect x="659" y="1113" width="72" height="22" rx="6" fill="#7C9CC8" />
<text x="695" y="1124" font-family="Inter, sans-serif" font-size="12" font-weight="600" fill="#FFFFFF" text-anchor="middle" dominant-baseline="central">29</text>
<rect x="596" y="1113" width="30" height="22" rx="6" fill="#7C9CC8" />
<text x="611" y="1124" font-family="Inter, sans-serif" font-size="12" font-weight="600" fill="#FFFFFF" text-anchor="middle" dominant-baseline="central">30</text>
<rect x="556" y="1113" width="30" height="22" rx="6" fill="#7C9CC8" />
<text x="571" y="1124" font-family="Inter, sans-serif" font-size="12" font-weight="600" fill="#FFFFFF" text-anchor="middle" dominant-baseline="central">31</text>
<rect x="514" y="1113" width="30" height="22" rx="6" fill="#7C9CC8" />
<text x="529" y="1124" font-family="Inter, sans-serif" font-size="12" font-weight="600" fill="#FFFFFF" text-anchor="middle" dominant-baseline="central">32</text>
<rect x="414" y="1113" width="72" height="22" rx="6" fill="#7C9CC8" />
<text x="450" y="1124" font-family="Inter, sans-serif" font-size="12" font-weight="600" fill="#FFFFFF" text-anchor="middle" dominant-baseline="central">33</text>
<rect x="75" y="342" width="28" height="513" rx="6" fill="#7C9CC8" />
<text x="89" y="598.5" font-family="Inter, sans-serif" font-size="12" font-weight="600" fill="#FFFFFF" text-anchor="middle" dominant-baseline="central">47</text>
<rect x="516" y="262" width="30" height="118" rx="6" fill="#7C9CC8" />
<text x="531" y="321" font-family="Inter, sans-serif" font-size="12" font-weight="600" fill="#FFFFFF" text-anchor="middle" dominant-baseline="central">40</text>
<rect x="378" y="420" width="99" height="363" rx="4" fill="#B7CFF0" />
<rect x="391" y="436" width="31" height="82" rx="6" fill="#7C9CC8" />
<text x="406.5" y="477" font-family="Inter, sans-serif" font-size="12" font-weight="600" fill="#FFFFFF" text-anchor="middle" dominant-baseline="central">3</text>
<rect x="433" y="436" width="30" height="172" rx="6" fill="#7C9CC8" />
<text x="448" y="522" font-family="Inter, sans-serif" font-size="12" font-weight="600" fill="#FFFFFF" text-anchor="middle" dominant-baseline="central">2</text>
<rect x="391" y="534" width="31" height="74" rx="6" fill="#7C9CC8" />
<text x="406.5" y="571" font-family="Inter, sans-serif" font-size="12" font-weight="600" fill="#FFFFFF" text-anchor="middle" dominant-baseline="central">4</text>
<rect x="391" y="636" width="31" height="66" rx="6" fill="#7C9CC8" />
<text x="406.5" y="669" font-family="Inter, sans-serif" font-size="12" font-weight="600" fill="#FFFFFF" text-anchor="middle" dominant-baseline="central">7</text>
<rect x="432" y="636" width="31" height="28" rx="6" fill="#7C9CC8" />
<text x="447.5" y="650" font-family="Inter, sans-serif" font-size="12" font-weight="600" fill="#FFFFFF" text-anchor="middle" dominant-baseline="central">5</text>
<rect x="432" y="674" width="31" height="28" rx="6" fill="#7C9CC8" />
<text x="447.5" y="688" font-family="Inter, sans-serif" font-size="12" font-weight="600" fill="#FFFFFF" text-anchor="middle" dominant-baseline="central">6</text>
<rect x="391" y="722" width="72" height="48" rx="6" fill="#7C9CC8" />
<text x="427" y="746" font-family="Inter, sans-serif" font-size="12" font-weight="600" fill="#FFFFFF" text-anchor="middle" dominant-baseline="central">8</text>
<rect x="482" y="208" width="40" height="808" rx="4" fill="#B7CFF0" />
<rect x="516" y="879" width="74" height="63" rx="6" fill="#7C9CC8" />
<text x="553" y="910.5" font-family="Inter, sans-serif" font-size="12" font-weight="600" fill="#FFFFFF" text-anchor="middle" dominant-baseline="central">45</text>
<rect x="733" y="598" width="99" height="383" rx="4" fill="#B7CFF0" />
<rect x="752" y="618" width="60" height="28" rx="6" fill="#7C9CC8" />
<text x="782" y="632" font-family="Inter, sans-serif" font-size="12" font-weight="600" fill="#FFFFFF" text-anchor="middle" dominant-baseline="central">44</text>
<rect x="752" y="652" width="60" height="28" rx="6" fill="#7C9CC8" />
<text x="782" y="666" font-family="Inter, sans-serif" font-size="12" font-weight="600" fill="#FFFFFF" text-anchor="middle" dominant-baseline="central">43</text>
<rect x="752" y="684" width="60" height="28" rx="6" fill="#7C9CC8" />
<text x="782" y="698" font-family="Inter, sans-serif" font-size="12" font-weight="600" fill="#FFFFFF" text-anchor="middle" dominant-baseline="central">42</text>
<rect x="752" y="716" width="60" height="28" rx="6" fill="#7C9CC8" />
<text x="782" y="730" font-family="Inter, sans-serif" font-size="12" font-weight="600" fill="#FFFFFF" text-anchor="middle" dominant-baseline="central">41</text>
<rect x="752" y="748" width="60" height="28" rx="6" fill="#7C9CC8" />
<text x="782" y="762" font-family="Inter, sans-serif" font-size="12" font-weight="600" fill="#FFFFFF" text-anchor="middle" dominant-baseline="central">40</text>
<rect x="752" y="780" width="60" height="28" rx="6" fill="#7C9CC8" />
<text x="782" y="794" font-family="Inter, sans-serif" font-size="12" font-weight="600" fill="#FFFFFF" text-anchor="middle" dominant-baseline="central">39</text>
<rect x="752" y="812" width="60" height="28" rx="6" fill="#7C9CC8" />
<text x="782" y="826" font-family="Inter, sans-serif" font-size="12" font-weight="600" fill="#FFFFFF" text-anchor="middle" dominant-baseline="central">38</text>
<rect x="752" y="844" width="60" height="28" rx="6" fill="#7C9CC8" />
<text x="782" y="858" font-family="Inter, sans-serif" font-size="12" font-weight="600" fill="#FFFFFF" text-anchor="middle" dominant-baseline="central">37</text>
<rect x="752" y="876" width="60" height="28" rx="6" fill="#7C9CC8" />
<text x="782" y="890" font-family="Inter, sans-serif" font-size="12" font-weight="600" fill="#FFFFFF" text-anchor="middle" dominant-baseline="central">36</text>
<rect x="752" y="908" width="60" height="28" rx="6" fill="#7C9CC8" />
<text x="782" y="922" font-family="Inter, sans-serif" font-size="12" font-weight="600" fill="#FFFFFF" text-anchor="middle" dominant-baseline="central">35</text>
<rect x="752" y="940" width="60" height="28" rx="6" fill="#7C9CC8" />
<text x="782" y="954" font-family="Inter, sans-serif" font-size="12" font-weight="600" fill="#FFFFFF" text-anchor="middle" dominant-baseline="central">34</text>
</svg>
